<?xml version="1.0" encoding="utf-8"?>
<!-- Generator: Adobe Illustrator 21.0.0, SVG Export Plug-In . SVG Version: 6.00 Build 0)  -->
<svg version="1.1" id="Layer_1___ZraCQaX9" xmlns="http://www.w3.org/2000/svg" xmlns:xlink="http://www.w3.org/1999/xlink" x="0px"
	 y="0px" viewBox="0 0 478.9 478.9" style="enable-background:new 0 0 478.9 478.9;" xml:space="preserve">
<style type="text/css">
	.st0{clip-path:url(#SVGID_2_);fill:#BBBBBB;}
	.st1{clip-path:url(#SVGID_2_);}
	.st2{fill:#F5C26B;}
	.st3{fill:#33475B;}
	.st4{fill:none;}
	.st5{fill:#D19781;}
	.st6{fill:#E0BAAB;}
	.st7{fill:#AE7E6B;}
	.st8{fill:#D9A896;}
</style>
<g>
	<g>
		<defs>
			<circle id="SVGID_1_" cx="239.5" cy="239.5" r="239.5"/>
		</defs>
		<clipPath id="SVGID_2_">
			<use xlink:href="#SVGID_1_"  style="overflow:visible;"/>
		</clipPath>
		<rect y="1" class="st0" width="478.9" height="478.9"/>
		<g class="st1">
			<g>
				<path class="st2" d="M224.1,278.1h30.7c69.4,0,125.6,56.2,125.6,125.6v96.2H98.5v-96.2C98.5,334.3,154.8,278.1,224.1,278.1z"/>
				<path class="st3" d="M380.4,503.9H98.5c-2.2,0-4-1.8-4-4v-96.2c0-71.4,58.1-129.6,129.6-129.6h30.7
					c71.4,0,129.6,58.1,129.6,129.6v96.2C384.4,502.1,382.6,503.9,380.4,503.9z M102.5,495.9h273.8v-92.2
					c0-67-54.5-121.6-121.6-121.6h-30.7c-67,0-121.6,54.5-121.6,121.6V495.9z"/>
			</g>
			<g>
				<g>
					<g>
						<line class="st4" x1="169.1" y1="499.9" x2="169.1" y2="433.1"/>
						<path class="st3" d="M169.1,503.9c-2.2,0-4-1.8-4-4v-66.9c0-2.2,1.8-4,4-4s4,1.8,4,4v66.9
							C173.1,502.1,171.3,503.9,169.1,503.9z"/>
					</g>
				</g>
				<g>
					<g>
						<line class="st4" x1="309.8" y1="499.9" x2="309.8" y2="433.1"/>
						<path class="st3" d="M309.8,503.9c-2.2,0-4-1.8-4-4v-66.9c0-2.2,1.8-4,4-4s4,1.8,4,4v66.9C313.8,502.1,312,503.9,309.8,503.9z
							"/>
					</g>
				</g>
			</g>
		</g>
	</g>
</g>
<g id="Avatar_3___ZraCQaX9">
	<g>
		<g>
			<g>
				<circle class="st5" cx="330.2" cy="194.6" r="20.9"/>
				<path class="st3" d="M330.2,219.5c-13.7,0-24.9-11.2-24.9-24.9s11.2-24.9,24.9-24.9s24.9,11.2,24.9,24.9S344,219.5,330.2,219.5z
					 M330.2,177.7c-9.3,0-16.9,7.6-16.9,16.9s7.6,16.9,16.9,16.9s16.9-7.6,16.9-16.9S339.6,177.7,330.2,177.7z"/>
			</g>
			<g>
				<circle class="st5" cx="147.8" cy="194.6" r="20.9"/>
				<path class="st3" d="M147.8,219.5c-13.7,0-24.9-11.2-24.9-24.9s11.2-24.9,24.9-24.9s24.9,11.2,24.9,24.9
					S161.6,219.5,147.8,219.5z M147.8,177.7c-9.3,0-16.9,7.6-16.9,16.9s7.6,16.9,16.9,16.9s16.9-7.6,16.9-16.9
					S157.2,177.7,147.8,177.7z"/>
			</g>
			<g>
				<path class="st6" d="M239.1,309.1L239.1,309.1c-50.4,0-91.3-40.9-91.3-91.3v-46.5c0-50.4,40.9-91.3,91.3-91.3h0
					c50.4,0,91.3,40.9,91.3,91.3v46.5C330.4,268.3,289.6,309.1,239.1,309.1z"/>
				<path class="st3" d="M239.1,313.1c-52.6,0-95.3-42.8-95.3-95.3v-46.5c0-52.6,42.8-95.3,95.3-95.3c52.6,0,95.3,42.8,95.3,95.3
					v46.5C334.4,270.4,291.7,313.1,239.1,313.1z M239.1,84.1c-48.1,0-87.3,39.2-87.3,87.3v46.5c0,48.1,39.2,87.3,87.3,87.3h0
					c48.1,0,87.3-39.2,87.3-87.3v-46.5C326.4,123.2,287.3,84.1,239.1,84.1z"/>
			</g>
			<g>
				<path class="st6" d="M232.8,194.6l-7.2,23.6c-1.4,4.7,2.1,9.5,7,9.5h9.9"/>
				<path class="st3" d="M242.5,231.7h-9.9c-3.6,0-6.9-1.7-9.1-4.6c-2.2-2.9-2.8-6.6-1.7-10.1l7.2-23.6c0.6-2.1,2.9-3.3,5-2.7
					c2.1,0.6,3.3,2.9,2.7,5l-7.2,23.6c-0.3,1-0.1,2.1,0.5,3c0.6,0.9,1.6,1.3,2.7,1.3h9.9c2.2,0,4,1.8,4,4S244.7,231.7,242.5,231.7z"
					/>
			</g>
			<g>
				<circle class="st5" cx="172.8" cy="218.8" r="4.1"/>
				<circle class="st5" cx="181" cy="228.4" r="4.1"/>
			</g>
			<g>
				<circle class="st5" cx="297.4" cy="221.5" r="4.1"/>
				<circle class="st5" cx="287.7" cy="231.5" r="4.1"/>
				<circle class="st5" cx="301.4" cy="233.8" r="4.1"/>
			</g>
			<g>
				<path class="st7" d="M246.5,61.1H174c-14.7,0-28.8-5.8-39.2-16.2l-2.7-2.7c-6-6-16.4-1.8-16.4,6.8v12.1v24
					c0,33.1,26.8,59.9,59.9,59.9h113.9h0c17.9,0,33.4,12.6,37,30.2l3.9,19.3V145v0C330.4,98.7,292.9,61.1,246.5,61.1z"/>
				<path class="st3" d="M330.4,198.6c-1.9,0-3.5-1.3-3.9-3.2l-3.9-19.3c-3.2-15.7-17.1-27-33-27H175.7c-35.2,0-63.9-28.7-63.9-63.9
					V49c0-5.6,3.2-10.4,8.4-12.6c5.2-2.1,10.9-1,14.8,2.9l2.7,2.7c9.7,9.7,22.6,15.1,36.3,15.1h72.5c48.5,0,87.9,39.4,87.9,87.9
					v49.6c0,2.1-1.6,3.8-3.6,4C330.7,198.6,330.6,198.6,330.4,198.6z M125.5,43.4c-1,0-1.9,0.3-2.2,0.4c-0.8,0.3-3.5,1.7-3.5,5.2
					v36.1c0,30.8,25.1,55.9,55.9,55.9h113.9c15.7,0,29.8,8.9,36.9,22.3V145c0-44.1-35.8-79.9-79.9-79.9H174
					c-15.9,0-30.8-6.2-42-17.4l-2.7-2.7C128,43.7,126.6,43.4,125.5,43.4z"/>
			</g>
			<path class="st8" d="M225.2,82.7h-24.5c-2.2,0-4-1.8-4-4s1.8-4,4-4h24.5c2.2,0,4,1.8,4,4S227.4,82.7,225.2,82.7z"/>
			<path class="st8" d="M305.5,121.2c-1.5,0-2.9-0.8-3.6-2.2c-11.5-22.4-34.3-36.4-59.5-36.4c-2.2,0-4-1.8-4-4s1.8-4,4-4
				c28.2,0,53.7,15.6,66.6,40.7c1,2,0.2,4.4-1.7,5.4C306.8,121.1,306.1,121.2,305.5,121.2z"/>
			<path class="st3" d="M206.1,131.8h-25.7c-21.2,0-40-12.7-47.8-32.4c-0.8-2.1,0.2-4.4,2.2-5.2c2.1-0.8,4.4,0.2,5.2,2.2
				c6.6,16.6,22.5,27.4,40.4,27.4h25.7c2.2,0,4,1.8,4,4C210.1,130,208.3,131.8,206.1,131.8z"/>
		</g>
		<path class="st3" d="M206.1,194.6c0,6.2-5.1,11.2-11.2,11.2c-6.2,0-11.2-5.1-11.2-11.2c0-6.2,5-11.2,11.2-11.2
			c1,0,2.1,0.1,3.1,0.5c-1.3,0.9-2,2.5-2,4.2c0,3.1,2.5,5.5,5.5,5.5c1.8,0,3.3-0.8,4.3-2C206,192.5,206.1,193.5,206.1,194.6z"/>
		<path class="st3" d="M294.6,194.6c0,6.2-5.1,11.2-11.2,11.2s-11.2-5.1-11.2-11.2c0-6.2,5-11.2,11.2-11.2c1,0,2.1,0.1,3.1,0.5
			c-1.3,0.9-2,2.5-2,4.2c0,3.1,2.5,5.5,5.5,5.5c1.8,0,3.3-0.8,4.3-2C294.4,192.5,294.6,193.5,294.6,194.6z"/>
	</g>
	<path class="st3" d="M179.9,181.3c-0.9,0-1.9-0.3-2.6-1c-1.7-1.5-1.8-4-0.4-5.6c8.5-9.8,22.3-13.2,34.4-8.6
		c2.1,0.8,3.1,3.1,2.3,5.2s-3.1,3.1-5.2,2.3c-9-3.4-19.3-0.8-25.6,6.4C182.1,180.9,181,181.3,179.9,181.3z"/>
	<path class="st3" d="M298.4,181.3c-1.1,0-2.2-0.5-3-1.4c-6.3-7.2-16.6-9.8-25.6-6.4c-2.1,0.8-4.4-0.3-5.2-2.3
		c-0.8-2.1,0.3-4.4,2.3-5.2c12.1-4.6,25.9-1.1,34.4,8.6c1.5,1.7,1.3,4.2-0.4,5.6C300.2,181,299.3,181.3,298.4,181.3z"/>
	<path class="st3" d="M239.2,259.4c-7.4,0-14.7-1.9-21.1-5.5c-1.9-1.1-2.6-3.5-1.5-5.4s3.5-2.6,5.4-1.5c5.2,2.9,11.2,4.5,17.2,4.5
		c6.1,0,12-1.5,17.2-4.5c1.9-1.1,4.4-0.4,5.5,1.5c1.1,1.9,0.4,4.4-1.5,5.5C253.9,257.5,246.6,259.4,239.2,259.4z"/>
</g>
</svg>
